<?xml version="1.0" encoding="UTF-8" standalone="no"?>
<!DOCTYPE svg PUBLIC "-//W3C//DTD SVG 1.1//EN" "http://www.w3.org/Graphics/SVG/1.1/DTD/svg11.dtd">
<svg width="100%" height="100%" viewBox="0 0 1500 1000" version="1.1" xmlns="http://www.w3.org/2000/svg" xmlns:xlink="http://www.w3.org/1999/xlink" xml:space="preserve" xmlns:serif="http://www.serif.com/" style="fill-rule:evenodd;clip-rule:evenodd;stroke-linecap:round;stroke-linejoin:round;stroke-miterlimit:1.5;">
    <g transform="matrix(0.987536,0.157391,-0.157391,0.987536,87.5522,-108.409)">
        <g id="Phone" transform="matrix(1.21126,-1.38778e-17,1.38778e-17,1.21126,170.282,45.9175)">
            <g id="Rectangle_76" transform="matrix(1,0,0,1,636.095,169.558)">
                <path d="M10.994,1.891C10.994,0.847 10.147,0 9.103,0L1.891,0C0.847,0 0,0.847 0,1.891L0,88.713C0,89.757 0.847,90.604 1.891,90.604L9.103,90.604C10.147,90.604 10.994,89.757 10.994,88.713L10.994,1.891Z" style="fill:rgb(63,61,86);"/>
            </g>
            <g id="Rectangle_80" transform="matrix(1,0,0,1,274.248,0)">
                <path d="M367.778,32.19C367.778,14.424 353.354,0 335.588,0L32.19,0C14.424,0 0,14.424 0,32.19L0,715.265C0,733.031 14.424,747.455 32.19,747.455L335.588,747.455C353.354,747.455 367.778,733.031 367.778,715.265L367.778,32.19Z" style="fill:rgb(63,61,86);"/>
            </g>
            <g id="Path_176" transform="matrix(1,0,0,1,-167.063,-179.531)">
                <path d="M757.9,199L715.712,199L715.712,204.075C715.712,217.267 704.857,228.122 691.665,228.122C691.661,228.122 691.656,228.122 691.652,228.122L557.483,228.122C557.479,228.122 557.474,228.122 557.47,228.122C544.278,228.122 533.423,217.267 533.423,204.075L533.423,199L493.923,199C477.899,199 464.714,212.185 464.714,228.209L464.714,878.359C464.714,894.383 477.899,907.568 493.923,907.568L757.9,907.568C773.924,907.568 787.109,894.383 787.109,878.359L787.109,228.259C787.109,228.242 787.109,228.226 787.109,228.209C787.109,212.185 773.924,199 757.9,199Z" style="fill:rgb(53,47,68);fill-rule:nonzero;"/>
            </g>
            <g id="Rectangle_81" transform="matrix(1,0,0,1,422.662,22.322)">
                <path d="M51.357,3.195C51.357,1.432 49.925,0 48.162,0L3.195,0C1.432,0 0,1.432 0,3.195L0,7.228C0,8.991 1.432,10.423 3.195,10.423L48.162,10.423C49.925,10.423 51.357,8.991 51.357,7.228L51.357,3.195Z" style="fill:rgb(230,232,236);"/>
            </g>
        </g>
        <g id="Icons" transform="matrix(1,0,0,1,9,0)">
            <g transform="matrix(1.15584,0,0,1.15584,-80.0909,12.4026)">
                <path d="M623,164.25C623,153.626 614.374,145 603.75,145L565.25,145C554.626,145 546,153.626 546,164.25L546,202.75C546,213.374 554.626,222 565.25,222L603.75,222C614.374,222 623,213.374 623,202.75L623,164.25Z" style="fill:rgb(87,77,112);"/>
            </g>
            <g transform="matrix(1.15584,0,0,1.15584,43.9091,12.4026)">
                <path d="M623,164.25C623,153.626 614.374,145 603.75,145L565.25,145C554.626,145 546,153.626 546,164.25L546,202.75C546,213.374 554.626,222 565.25,222L603.75,222C614.374,222 623,213.374 623,202.75L623,164.25Z" style="fill:rgb(87,77,112);"/>
            </g>
            <g transform="matrix(1.15584,0,0,1.15584,167.909,12.4026)">
                <path d="M623,164.25C623,153.626 614.374,145 603.75,145L565.25,145C554.626,145 546,153.626 546,164.25L546,202.75C546,213.374 554.626,222 565.25,222L603.75,222C614.374,222 623,213.374 623,202.75L623,164.25Z" style="fill:rgb(87,77,112);"/>
            </g>
            <g transform="matrix(1.15584,0,0,1.15584,-80.0909,133.403)">
                <path d="M623,164.25C623,153.626 614.374,145 603.75,145L565.25,145C554.626,145 546,153.626 546,164.25L546,202.75C546,213.374 554.626,222 565.25,222L603.75,222C614.374,222 623,213.374 623,202.75L623,164.25Z" style="fill:rgb(87,77,112);"/>
            </g>
            <g transform="matrix(1.15584,0,0,1.15584,43.9091,133.403)">
                <path d="M623,164.25C623,153.626 614.374,145 603.75,145L565.25,145C554.626,145 546,153.626 546,164.25L546,202.75C546,213.374 554.626,222 565.25,222L603.75,222C614.374,222 623,213.374 623,202.75L623,164.25Z" style="fill:rgb(87,77,112);"/>
            </g>
            <g transform="matrix(1.15584,0,0,1.15584,167.909,133.403)">
                <path d="M623,164.25C623,153.626 614.374,145 603.75,145L565.25,145C554.626,145 546,153.626 546,164.25L546,202.75C546,213.374 554.626,222 565.25,222L603.75,222C614.374,222 623,213.374 623,202.75L623,164.25Z" style="fill:rgb(87,77,112);"/>
            </g>
            <g transform="matrix(1.15584,0,0,1.15584,-80.0909,252.403)">
                <path d="M623,164.25C623,153.626 614.374,145 603.75,145L565.25,145C554.626,145 546,153.626 546,164.25L546,202.75C546,213.374 554.626,222 565.25,222L603.75,222C614.374,222 623,213.374 623,202.75L623,164.25Z" style="fill:rgb(87,77,112);"/>
            </g>
            <g transform="matrix(1.15584,0,0,1.15584,43.9091,252.403)">
                <path d="M623,164.25C623,153.626 614.374,145 603.75,145L565.25,145C554.626,145 546,153.626 546,164.25L546,202.75C546,213.374 554.626,222 565.25,222L603.75,222C614.374,222 623,213.374 623,202.75L623,164.25Z" style="fill:rgb(87,77,112);"/>
            </g>
            <g transform="matrix(1.15584,0,0,1.15584,167.909,252.403)">
                <path d="M623,164.25C623,153.626 614.374,145 603.75,145L565.25,145C554.626,145 546,153.626 546,164.25L546,202.75C546,213.374 554.626,222 565.25,222L603.75,222C614.374,222 623,213.374 623,202.75L623,164.25Z" style="fill:rgb(87,77,112);"/>
            </g>
            <g transform="matrix(1.15584,0,0,1.15584,-80.0909,373.403)">
                <path d="M623,164.25C623,153.626 614.374,145 603.75,145L565.25,145C554.626,145 546,153.626 546,164.25L546,202.75C546,213.374 554.626,222 565.25,222L603.75,222C614.374,222 623,213.374 623,202.75L623,164.25Z" style="fill:rgb(87,77,112);"/>
            </g>
            <g transform="matrix(1.15584,0,0,1.15584,43.9091,373.403)">
                <path d="M623,164.25C623,153.626 614.374,145 603.75,145L565.25,145C554.626,145 546,153.626 546,164.25L546,202.75C546,213.374 554.626,222 565.25,222L603.75,222C614.374,222 623,213.374 623,202.75L623,164.25Z" style="fill:rgb(87,77,112);"/>
            </g>
            <g transform="matrix(1.15584,0,0,1.15584,167.909,373.403)">
                <path d="M623,164.25C623,153.626 614.374,145 603.75,145L565.25,145C554.626,145 546,153.626 546,164.25L546,202.75C546,213.374 554.626,222 565.25,222L603.75,222C614.374,222 623,213.374 623,202.75L623,164.25Z" style="fill:rgb(87,77,112);"/>
            </g>
            <g transform="matrix(1.15584,0,0,1.15584,-80.0909,492.403)">
                <path d="M623,164.25C623,153.626 614.374,145 603.75,145L565.25,145C554.626,145 546,153.626 546,164.25L546,202.75C546,213.374 554.626,222 565.25,222L603.75,222C614.374,222 623,213.374 623,202.75L623,164.25Z" style="fill:rgb(87,77,112);"/>
            </g>
            <g transform="matrix(1.15584,0,0,1.15584,43.9091,492.403)">
                <path d="M623,164.25C623,153.626 614.374,145 603.75,145L565.25,145C554.626,145 546,153.626 546,164.25L546,202.75C546,213.374 554.626,222 565.25,222L603.75,222C614.374,222 623,213.374 623,202.75L623,164.25Z" style="fill:rgb(87,77,112);"/>
            </g>
            <g transform="matrix(1.15584,0,0,1.15584,167.909,492.403)">
                <path d="M623,164.25C623,153.626 614.374,145 603.75,145L565.25,145C554.626,145 546,153.626 546,164.25L546,202.75C546,213.374 554.626,222 565.25,222L603.75,222C614.374,222 623,213.374 623,202.75L623,164.25Z" style="fill:rgb(87,77,112);"/>
            </g>
            <g transform="matrix(1.15584,0,0,1.15584,-80.0909,613.403)">
                <path d="M623,164.25C623,153.626 614.374,145 603.75,145L565.25,145C554.626,145 546,153.626 546,164.25L546,202.75C546,213.374 554.626,222 565.25,222L603.75,222C614.374,222 623,213.374 623,202.75L623,164.25Z" style="fill:rgb(87,77,112);"/>
            </g>
            <g transform="matrix(1.15584,0,0,1.15584,43.9091,613.403)">
                <path d="M623,164.25C623,153.626 614.374,145 603.75,145L565.25,145C554.626,145 546,153.626 546,164.25L546,202.75C546,213.374 554.626,222 565.25,222L603.75,222C614.374,222 623,213.374 623,202.75L623,164.25Z" style="fill:rgb(87,77,112);"/>
            </g>
            <g transform="matrix(1.15584,0,0,1.15584,167.909,613.403)">
                <path d="M623,164.25C623,153.626 614.374,145 603.75,145L565.25,145C554.626,145 546,153.626 546,164.25L546,202.75C546,213.374 554.626,222 565.25,222L603.75,222C614.374,222 623,213.374 623,202.75L623,164.25Z" style="fill:rgb(87,77,112);"/>
            </g>
        </g>
        <g id="Check">
            <g transform="matrix(1.05405,0,0,1.05405,-34.8108,-13.1081)">
                <circle cx="625.5" cy="205.5" r="18.5" style="fill:rgb(156,255,137);"/>
            </g>
            <path d="M617,204L622,209L632,198" style="fill:none;stroke:white;stroke-width:4.5px;"/>
        </g>
        <g id="Check1" serif:id="Check" transform="matrix(1,0,0,1,0,361)">
            <g transform="matrix(1.05405,0,0,1.05405,-34.8108,-13.1081)">
                <circle cx="625.5" cy="205.5" r="18.5" style="fill:rgb(156,255,137);"/>
            </g>
            <path d="M617,204L622,209L632,198" style="fill:none;stroke:white;stroke-width:4.5px;"/>
        </g>
        <g id="Check2" serif:id="Check" transform="matrix(1,0,0,1,249,361)">
            <g transform="matrix(1.05405,0,0,1.05405,-34.8108,-13.1081)">
                <circle cx="625.5" cy="205.5" r="18.5" style="fill:rgb(156,255,137);"/>
            </g>
            <path d="M617,204L622,209L632,198" style="fill:none;stroke:white;stroke-width:4.5px;"/>
        </g>
        <g id="Check3" serif:id="Check" transform="matrix(1,0,0,1,249,240)">
            <g transform="matrix(1.05405,0,0,1.05405,-34.8108,-13.1081)">
                <circle cx="625.5" cy="205.5" r="18.5" style="fill:rgb(156,255,137);"/>
            </g>
            <path d="M617,204L622,209L632,198" style="fill:none;stroke:white;stroke-width:4.5px;"/>
        </g>
        <g id="Check4" serif:id="Check" transform="matrix(1,0,0,1,125,122)">
            <g transform="matrix(1.05405,0,0,1.05405,-34.8108,-13.1081)">
                <circle cx="625.5" cy="205.5" r="18.5" style="fill:rgb(156,255,137);"/>
            </g>
            <path d="M617,204L622,209L632,198" style="fill:none;stroke:white;stroke-width:4.5px;"/>
        </g>
        <g id="Check5" serif:id="Check" transform="matrix(1,0,0,1,125,480)">
            <g transform="matrix(1.05405,0,0,1.05405,-34.8108,-13.1081)">
                <circle cx="625.5" cy="205.5" r="18.5" style="fill:rgb(156,255,137);"/>
            </g>
            <path d="M617,204L622,209L632,198" style="fill:none;stroke:white;stroke-width:4.5px;"/>
        </g>
        <g id="Check6" serif:id="Check" transform="matrix(1,0,0,1,125,602)">
            <g transform="matrix(1.05405,0,0,1.05405,-34.8108,-13.1081)">
                <circle cx="625.5" cy="205.5" r="18.5" style="fill:rgb(156,255,137);"/>
            </g>
            <path d="M617,204L622,209L632,198" style="fill:none;stroke:white;stroke-width:4.5px;"/>
        </g>
    </g>
    <g transform="matrix(1,0,0,1,0,-5)">
        <g transform="matrix(1.73224,0,0,1.74449,-20.3797,-213.728)">
            <path d="M779,654.72L650.309,694.981L490.221,593.962L490.214,593.955L489.689,593.631L489.603,593.574L488.33,592.776L473.088,583.185C473.117,582.926 473.153,582.674 473.203,582.43C473.437,581.245 473.978,580.141 474.771,579.231C475.047,578.904 475.35,578.601 475.677,578.325L475.684,578.325C475.828,578.203 475.979,578.08 476.137,577.965C476.295,577.843 476.46,577.728 476.633,577.62C479.581,575.643 484.024,574.802 488.654,574.55C498.651,574.076 508.601,576.233 517.505,580.805C535.5,589.907 574.179,607.816 580.211,596.845C588.12,582.466 498.252,422.141 498.252,422.141C490.854,403.125 496.267,396.913 499.661,394.958C499.761,394.9 499.862,394.842 499.956,394.792C500.315,394.607 500.687,394.449 501.07,394.318C501.27,394.245 501.474,394.185 501.681,394.138C501.735,394.123 501.79,394.111 501.846,394.102L513.766,409.948L513.946,410.185L514.586,411.04L514.78,411.299L587.041,507.336C697.759,447.663 735.863,607.27 735.863,607.27L779,654.72Z" style="fill:rgb(251,190,190);fill-rule:nonzero;"/>
        </g>
        <g transform="matrix(1.93386,0,0,1.51902,-124.699,-122.892)">
            <path d="M514.78,411.299C514.245,412.403 513.109,413.094 511.883,413.061C511.485,413.059 511.088,413.006 510.704,412.902C508.029,412.183 504.931,409.25 502.616,405.246C500.358,401.335 499.431,397.402 499.956,394.792C500.315,394.607 500.687,394.449 501.07,394.318C501.27,394.245 501.474,394.185 501.681,394.138C500.753,395.957 501.307,400.091 503.867,404.527C505.959,408.157 508.791,410.904 511.07,411.508C511.309,411.607 511.566,411.659 511.825,411.659C512.806,411.659 513.643,410.921 513.766,409.948L513.946,410.185L514.586,411.04L514.78,411.299Z" style="fill:rgb(63,61,86);fill-rule:nonzero;"/>
        </g>
        <g transform="matrix(1.66625,0,0,1.78535,12.0649,-238.531)">
            <path d="M489.689,593.631L489.603,593.574L488.33,592.776C488.337,590.727 486.784,587.369 483.355,583.997C480.458,581.172 477.093,579.317 474.771,579.231C475.047,578.904 475.35,578.601 475.677,578.325L475.684,578.325C475.828,578.203 475.979,578.08 476.137,577.965C479.267,578.889 482.102,580.614 484.361,582.969C488.129,586.672 490.199,590.892 489.689,593.631Z" style="fill:rgb(63,61,86);fill-rule:nonzero;"/>
        </g>
    </g>
</svg>
