<?xml version="1.0" encoding="UTF-8" standalone="no"?>
<!DOCTYPE svg PUBLIC "-//W3C//DTD SVG 1.1//EN" "http://www.w3.org/Graphics/SVG/1.1/DTD/svg11.dtd">
<svg width="100%" height="100%" viewBox="0 0 1500 1000" version="1.1" xmlns="http://www.w3.org/2000/svg" xmlns:xlink="http://www.w3.org/1999/xlink" xml:space="preserve" xmlns:serif="http://www.serif.com/" style="fill-rule:evenodd;clip-rule:evenodd;stroke-linejoin:round;stroke-miterlimit:2;">
    <g id="Laptop" transform="matrix(1.68494,0,0,1.43477,113.828,19.9957)">
        <g transform="matrix(1,0,0,1,-227.121,-115.58)">
            <path d="M601.167,116.562L963.942,298.951C970.097,302.046 973.816,308.56 973.352,315.433L952.275,627.638C951.975,632.075 948.242,635.565 943.795,635.565C942.462,635.565 941.149,635.252 939.96,634.651L568.913,445.287L587.962,124.173C588.246,119.38 592.268,115.59 597.069,115.59C598.492,115.59 599.896,115.923 601.167,116.562Z" style="fill:rgb(208,205,225);fill-rule:nonzero;"/>
        </g>
        <g transform="matrix(1,0,0,1,-227.121,-115.58)">
            <path d="M605.342,122.924L959.206,300.833C965.21,303.852 968.838,310.206 968.385,316.911L947.826,621.446C947.534,625.774 943.892,629.179 939.554,629.179C938.255,629.179 936.973,628.873 935.814,628.287L573.88,443.575L592.462,130.348C592.739,125.673 596.662,121.976 601.345,121.976C602.733,121.976 604.102,122.3 605.342,122.924Z" style="fill:rgb(63,61,86);fill-rule:nonzero;"/>
        </g>
        <g transform="matrix(1,0,0,1,-227.121,-115.58)">
            <path d="M620.851,146.554L941.618,307.824C947.06,310.56 950.348,316.32 949.938,322.398L931.302,598.45C931.037,602.374 927.736,605.46 923.803,605.46C922.626,605.46 921.464,605.183 920.413,604.651L592.331,437.215L609.174,153.284C609.426,149.046 612.982,145.695 617.227,145.695C618.485,145.695 619.726,145.989 620.851,146.554Z" style="fill:rgb(53,47,68);fill-rule:nonzero;"/>
        </g>
        <g transform="matrix(1,0,0,1,-227.121,-115.58)">
            <path d="M289.867,598.911L653.105,781.842C659.955,785.287 668.05,785.276 674.891,781.814L943.605,645.406C946.755,642.256 946.315,637.586 945.308,634.08C944.819,632.383 944.153,630.742 943.321,629.184L906.703,609.924L598.832,456.315L580.437,446.55C570.562,441.32 558.719,441.272 548.802,446.422L289.753,580.985C286.418,582.71 284.316,586.164 284.316,589.919C284.316,593.719 286.47,597.208 289.867,598.911Z" style="fill:rgb(208,205,225);fill-rule:nonzero;"/>
        </g>
        <g transform="matrix(1,0,0,1,-227.121,-115.58)">
            <path d="M289.867,598.911L653.105,781.842C659.955,785.287 668.05,785.276 674.891,781.814L943.605,645.406C946.755,642.256 946.315,637.586 945.308,634.08L677.397,773.334C670.771,776.778 662.881,776.845 656.198,773.516L284.445,588.308C283.73,592.638 285.938,596.956 289.867,598.911Z" style="fill-opacity:0.1;fill-rule:nonzero;"/>
        </g>
        <g transform="matrix(1,0,0,1,-227.121,-115.58)">
            <path d="M634.638,653.721L517.003,594.276C512.201,591.849 506.504,591.914 501.759,594.449L433.518,630.907C431.931,631.754 430.937,633.413 430.937,635.212C430.937,637.052 431.977,638.742 433.62,639.571L553.561,700.054C557.602,702.092 562.404,701.981 566.347,699.76L634.86,661.161C636.18,660.417 637,659.015 637,657.499C637,655.894 636.081,654.424 634.638,653.721Z" style="fill-opacity:0.1;fill-rule:nonzero;"/>
        </g>
        <g transform="matrix(1,0,0,1,-227.121,-115.58)">
            <path d="M911.687,643.779L785.101,711.028C782.147,712.597 778.607,712.632 775.623,711.123L417.963,530.253C415.919,529.22 414.625,527.116 414.625,524.825C414.625,522.516 415.94,520.399 418.01,519.374L541.624,458.191C545.399,456.323 549.841,456.339 553.602,458.234L911.631,638.626C912.608,639.118 913.227,640.123 913.227,641.217C913.227,642.288 912.633,643.276 911.687,643.779Z" style="fill-opacity:0.1;fill-rule:nonzero;"/>
        </g>
        <g transform="matrix(0.230182,0,0,0.270317,301.511,151.838)">
            <g id="Page">
                <g id="Logo">
                    <g transform="matrix(0.45111,0.175922,-0.175922,0.45111,934.546,220.085)">
                        <path d="M96.85,286.62C95.477,285.612 93.818,285.068 92.114,285.068C87.726,285.068 84.114,288.679 84.114,293.068C84.114,293.674 84.183,294.279 84.32,294.87C102.07,373.28 172.3,432 256,432C273.774,432.006 291.447,429.308 308.41,424C311.755,422.969 314.053,419.856 314.053,416.355C314.053,413.159 312.138,410.257 309.2,409C271.717,392.479 235.169,373.915 199.72,353.39C164.243,333.018 129.902,310.728 96.85,286.62Z" style="fill:white;fill-rule:nonzero;"/>
                    </g>
                    <g transform="matrix(0.45111,0.175922,-0.175922,0.45111,934.546,220.085)">
                        <path d="M492.72,339.51C488.53,333.93 483.61,328.07 478.02,321.98C475.021,318.677 470.761,316.791 466.3,316.791C459.698,316.791 453.758,320.921 451.46,327.11C451.46,327.27 451.35,327.42 451.29,327.58C449.261,333.093 450.479,339.302 454.44,343.64C477.18,368.64 480.86,382.15 479.92,385C477.92,387.23 462.87,391.89 421.77,381.47C415.883,379.977 409.443,378.157 402.45,376.01C397.943,374.623 393.347,373.127 388.66,371.52C396.022,363.076 402.565,353.952 408.2,344.27C408.37,343.98 408.55,343.69 408.72,343.39C423.985,316.798 432.013,286.662 432,256C432.004,249.653 431.67,243.311 431,237C421.43,148.83 346.6,80 256,80C217.565,79.978 180.169,92.593 149.6,115.89C131.069,129.994 115.496,147.61 103.77,167.73C103.61,168.02 103.43,168.31 103.26,168.6C97.687,178.309 93.056,188.529 89.43,199.12C85.703,195.873 82.107,192.65 78.64,189.45C73.25,184.45 68.47,179.82 64.22,175.45C34.65,145.19 31.13,129.84 32.06,127C34.06,124.77 47.6,121.13 80.68,128.31C86.437,129.576 92.442,127.524 96.22,123L96.58,122.56C98.932,119.733 100.221,116.169 100.221,112.492C100.221,105.146 95.079,98.73 87.91,97.13C80.058,95.351 72.122,93.973 64.13,93C33.41,89.47 13.3,95.52 4.35,111C1.11,116.58 -2,126.09 1.63,139.6C7,159.66 26.14,184 53.23,209.5C61.86,217.63 71.29,225.87 81.35,234.14C88.67,240.14 96.35,246.2 104.25,252.22C109.523,256.22 114.907,260.22 120.4,264.22C125.893,268.22 131.46,272.147 137.1,276C162.51,293.61 189.36,310.52 215.69,325.69C225.25,331.197 234.797,336.53 244.33,341.69C253.863,346.85 263.32,351.787 272.7,356.5C294.6,367.5 316.05,377.42 336.56,385.93C345.353,389.583 353.957,392.97 362.37,396.09C374.26,400.51 385.74,404.4 396.68,407.68L397.78,408.01C423.51,415.67 445.2,419.7 462.26,420.01L464,420.01C485.64,420.01 500.3,413.63 507.58,401.01C516.67,385.39 511.66,364.69 492.72,339.51Z" style="fill:white;fill-rule:nonzero;"/>
                    </g>
                </g>
            </g>
        </g>
    </g>
    <g id="Phone" transform="matrix(0.997464,-0.0711667,0.0711667,0.997464,-97.4289,242.732)">
        <g id="Rectangle_76" transform="matrix(1,0,0,1,636.095,169.558)">
            <path d="M10.994,2.29C10.994,1.026 9.968,0 8.704,0L2.29,0C1.026,0 0,1.026 0,2.29L0,88.314C0,89.578 1.026,90.604 2.29,90.604L8.704,90.604C9.968,90.604 10.994,89.578 10.994,88.314L10.994,2.29Z" style="fill:rgb(63,61,86);"/>
        </g>
        <g id="Rectangle_80" transform="matrix(1,0,0,1,274.248,0)">
            <path d="M367.778,38.99C367.778,17.471 350.307,0 328.788,0L38.99,0C17.471,0 0,17.471 0,38.99L0,708.465C0,729.984 17.471,747.455 38.99,747.455L328.788,747.455C350.307,747.455 367.778,729.984 367.778,708.465L367.778,38.99Z" style="fill:rgb(63,61,86);"/>
        </g>
        <g id="Path_176" transform="matrix(1,0,0,1,-167.063,-179.531)">
            <path d="M757.9,199L715.712,199L715.712,204.075C715.712,217.267 704.857,228.122 691.665,228.122C691.661,228.122 691.656,228.122 691.652,228.122L557.483,228.122C557.479,228.122 557.474,228.122 557.47,228.122C544.278,228.122 533.423,217.267 533.423,204.075L533.423,199L493.923,199C477.899,199 464.714,212.185 464.714,228.209L464.714,878.359C464.714,894.383 477.899,907.568 493.923,907.568L757.9,907.568C773.924,907.568 787.109,894.383 787.109,878.359L787.109,228.259C787.109,228.242 787.109,228.226 787.109,228.209C787.109,212.185 773.924,199 757.9,199Z" style="fill:rgb(53,47,68);fill-rule:nonzero;"/>
        </g>
        <g id="Rectangle_81" transform="matrix(1,0,0,1,422.662,22.322)">
            <path d="M51.357,3.87C51.357,1.734 49.623,0 47.487,0L3.87,0C1.734,0 0,1.734 0,3.87L0,6.553C0,8.689 1.734,10.423 3.87,10.423L47.487,10.423C49.623,10.423 51.357,8.689 51.357,6.553L51.357,3.87Z" style="fill:rgb(230,232,236);"/>
        </g>
        <g id="Logo1" serif:id="Logo" transform="matrix(0.50469,-0.00153669,0.00153669,0.50469,-47.939,186.821)">
            <g transform="matrix(0.45111,0.175922,-0.175922,0.45111,934.546,220.085)">
                <path d="M96.85,286.62C95.477,285.612 93.818,285.068 92.114,285.068C87.726,285.068 84.114,288.679 84.114,293.068C84.114,293.674 84.183,294.279 84.32,294.87C102.07,373.28 172.3,432 256,432C273.774,432.006 291.447,429.308 308.41,424C311.755,422.969 314.053,419.856 314.053,416.355C314.053,413.159 312.138,410.257 309.2,409C271.717,392.479 235.169,373.915 199.72,353.39C164.243,333.018 129.902,310.728 96.85,286.62Z" style="fill:white;fill-rule:nonzero;"/>
            </g>
            <g transform="matrix(0.45111,0.175922,-0.175922,0.45111,934.546,220.085)">
                <path d="M492.72,339.51C488.53,333.93 483.61,328.07 478.02,321.98C475.021,318.677 470.761,316.791 466.3,316.791C459.698,316.791 453.758,320.921 451.46,327.11C451.46,327.27 451.35,327.42 451.29,327.58C449.261,333.093 450.479,339.302 454.44,343.64C477.18,368.64 480.86,382.15 479.92,385C477.92,387.23 462.87,391.89 421.77,381.47C415.883,379.977 409.443,378.157 402.45,376.01C397.943,374.623 393.347,373.127 388.66,371.52C396.022,363.076 402.565,353.952 408.2,344.27C408.37,343.98 408.55,343.69 408.72,343.39C423.985,316.798 432.013,286.662 432,256C432.004,249.653 431.67,243.311 431,237C421.43,148.83 346.6,80 256,80C217.565,79.978 180.169,92.593 149.6,115.89C131.069,129.994 115.496,147.61 103.77,167.73C103.61,168.02 103.43,168.31 103.26,168.6C97.687,178.309 93.056,188.529 89.43,199.12C85.703,195.873 82.107,192.65 78.64,189.45C73.25,184.45 68.47,179.82 64.22,175.45C34.65,145.19 31.13,129.84 32.06,127C34.06,124.77 47.6,121.13 80.68,128.31C86.437,129.576 92.442,127.524 96.22,123L96.58,122.56C98.932,119.733 100.221,116.169 100.221,112.492C100.221,105.146 95.079,98.73 87.91,97.13C80.058,95.351 72.122,93.973 64.13,93C33.41,89.47 13.3,95.52 4.35,111C1.11,116.58 -2,126.09 1.63,139.6C7,159.66 26.14,184 53.23,209.5C61.86,217.63 71.29,225.87 81.35,234.14C88.67,240.14 96.35,246.2 104.25,252.22C109.523,256.22 114.907,260.22 120.4,264.22C125.893,268.22 131.46,272.147 137.1,276C162.51,293.61 189.36,310.52 215.69,325.69C225.25,331.197 234.797,336.53 244.33,341.69C253.863,346.85 263.32,351.787 272.7,356.5C294.6,367.5 316.05,377.42 336.56,385.93C345.353,389.583 353.957,392.97 362.37,396.09C374.26,400.51 385.74,404.4 396.68,407.68L397.78,408.01C423.51,415.67 445.2,419.7 462.26,420.01L464,420.01C485.64,420.01 500.3,413.63 507.58,401.01C516.67,385.39 511.66,364.69 492.72,339.51Z" style="fill:white;fill-rule:nonzero;"/>
            </g>
        </g>
    </g>
    <g id="Person" transform="matrix(-1.66347,0,0,1.43477,494.556,269.996)">
        <g transform="matrix(0.593491,0,0,0.696974,-253.177,-85.1481)">
            <path d="M791.994,543.19L795.272,559.422C796.556,565.785 802.199,570.401 808.69,570.401C809.743,570.401 810.792,570.28 811.817,570.039C817.983,568.592 822.379,563.046 822.379,556.712C822.379,553.869 821.493,551.095 819.845,548.778L810.355,535.435L786.878,471.05L791.164,415.901C777.69,410.841 763.973,405.174 756.537,415.167L765.775,475.51L791.994,543.19Z" style="fill:rgb(255,185,185);fill-rule:nonzero;"/>
        </g>
        <g transform="matrix(0.593491,0,0,0.696974,-253.177,-85.1481)">
            <path d="M820.158,333.565C820.158,333.231 820.152,332.902 820.146,332.556C819.614,311.495 802.942,294.997 782.189,294.997C772.084,294.983 762.392,299.061 755.338,306.295C748.188,313.564 744.188,323.369 744.215,333.565L744.215,371.331L820.158,371.331L820.158,333.565Z" style="fill:rgb(108,106,150);fill-rule:nonzero;"/>
        </g>
        <g transform="matrix(0.593491,0,0,0.696974,-253.177,-85.1481)">
            <path d="M799.248,789.807C799.679,786.774 798.301,783.753 795.727,782.09L773.144,771.008L756.118,773.157L752.097,787.573C752.028,787.987 751.994,788.406 751.994,788.826C751.994,792.712 754.946,796.015 758.808,796.449L790.579,796.519C794.782,796.992 798.653,793.995 799.248,789.807Z" style="fill:rgb(108,106,150);fill-rule:nonzero;"/>
        </g>
        <g transform="matrix(0.593491,0,0,0.696974,-67.5558,-13.9365)">
            <path d="M408.248,457.583L410.867,474.313L411.103,475.846L421.168,540.15L424.278,560.025L425.232,566.122L427.878,585.358L440.211,674.941L461.655,670.08L462.679,566.805L462.855,549.076L463.021,534.088L463.17,520.905L463.766,467.884L408.248,457.583Z" style="fill:rgb(108,106,150);fill-rule:nonzero;"/>
        </g>
        <g transform="matrix(0.593491,0,0,0.696974,-67.5558,-13.9365)">
            <circle cx="477.384" cy="229.243" r="28.752" style="fill:rgb(255,185,185);"/>
        </g>
        <g transform="matrix(0.593491,0,0,0.696974,-253.177,-85.1481)">
            <path d="M758.28,380.534L790.865,396.826C789.438,380.673 792.948,364.461 800.928,350.344L772.655,346.031C772.274,357.385 766.53,368.917 758.28,380.534Z" style="fill:rgb(255,185,185);fill-rule:nonzero;"/>
        </g>
        <g transform="matrix(0.593491,0,0,0.696974,-253.177,-85.1481)">
            <path d="M742.466,492.665L799.97,505.124L804.762,467.747C807.881,451.761 813.506,436.126 803.655,423.565L802.211,410.645C800.796,397.99 793.661,386.654 782.862,379.905L765.467,369.033C729.411,388.538 730.861,436.72 742.466,492.665Z" style="fill:rgb(230,230,230);fill-rule:nonzero;"/>
        </g>
        <g transform="matrix(0.593491,0,0,0.696974,-67.5558,-13.9365)">
            <path d="M424.278,560.025L425.232,566.122L427.878,585.358L462.679,566.805L462.855,549.076L463.021,534.088L424.278,560.025Z" style="fill-opacity:0.2;fill-rule:nonzero;"/>
        </g>
        <g transform="matrix(0.593491,0,0,0.696974,-253.177,-85.1481)">
            <path d="M721.01,559.755L723.629,576.486L723.866,578.019C728.017,584.918 733.452,590.957 739.878,595.809L775.932,623.078L776.528,570.056L721.01,559.755Z" style="fill-opacity:0.2;fill-rule:nonzero;"/>
        </g>
        <g transform="matrix(0.593491,0,0,0.696974,-253.177,-85.1481)">
            <path d="M728.569,664.863L731.227,684.385L821.955,637.168C829.121,633.026 833.548,625.353 833.548,617.076C833.548,611.438 831.493,605.989 827.771,601.754L780.323,547.773L801.407,500.332L741.029,484.519L734.32,498.895C720.306,511.976 713.999,527.242 715.4,544.692C716.893,562.207 725.808,578.272 739.881,588.805L785.115,623.006L728.569,664.863Z" style="fill:rgb(108,106,150);fill-rule:nonzero;"/>
        </g>
        <g transform="matrix(0.593491,0,0,0.696974,-259.189,-81.6632)">
            <path d="M721.993,703.844C725.022,704.077 727.923,702.52 729.403,699.868L742.393,676.594L739.18,659.887L724.661,656.828C724.41,656.803 724.157,656.79 723.905,656.79C719.869,656.79 716.499,660.003 716.307,664.034L714.8,695.695C714.6,699.884 717.812,703.522 721.993,703.844Z" style="fill:rgb(108,106,150);fill-rule:nonzero;"/>
        </g>
        <g transform="matrix(0.593491,0,0,0.696974,-253.177,-85.1481)">
            <path d="M740.549,549.69L740.032,566.241C740.028,566.384 740.025,566.526 740.025,566.669C740.025,574.179 746.205,580.358 753.715,580.358C761.224,580.358 767.404,574.179 767.404,566.669C767.404,564.894 767.059,563.136 766.387,561.493L760.196,546.335L752.05,478.289L768.822,425.578C756.86,417.573 744.8,408.922 735.278,416.952L730.486,477.81L740.549,549.69Z" style="fill:rgb(255,185,185);fill-rule:nonzero;"/>
        </g>
        <g transform="matrix(0.593491,0,0,0.696974,-253.177,-85.1481)">
            <path d="M729.528,424.62C747.183,416.181 760.716,420.486 770.739,435.641L777.236,399.391C778.771,390.831 774.35,382.239 766.494,378.511C764.389,377.512 762.088,376.994 759.759,376.994C753.419,376.994 747.674,380.832 745.247,386.689L729.528,424.62Z" style="fill:rgb(230,230,230);fill-rule:nonzero;"/>
        </g>
        <g transform="matrix(0.593491,0,0,0.696974,-253.177,-85.1481)">
            <path d="M758.634,311.292L765.851,334.252L828.244,333.143C827.693,312.378 810.46,295.598 789.688,295.598C777.441,295.598 765.898,301.431 758.634,311.292Z" style="fill:rgb(108,106,150);fill-rule:nonzero;"/>
        </g>
    </g>
</svg>
