<?xml version="1.0" encoding="UTF-8" standalone="no"?>
<!DOCTYPE svg PUBLIC "-//W3C//DTD SVG 1.1//EN" "http://www.w3.org/Graphics/SVG/1.1/DTD/svg11.dtd">
<svg width="100%" height="100%" viewBox="0 0 1500 1000" version="1.1" xmlns="http://www.w3.org/2000/svg" xmlns:xlink="http://www.w3.org/1999/xlink" xml:space="preserve" xmlns:serif="http://www.serif.com/" style="fill-rule:evenodd;clip-rule:evenodd;stroke-linecap:round;stroke-miterlimit:10;">
    <g id="Laptop" transform="matrix(1.58038,0,0,1.34573,124.864,52.4307)">
        <g transform="matrix(1,0,0,1,-227.121,-115.58)">
            <path d="M601.167,116.562L963.942,298.951C970.097,302.046 973.816,308.56 973.352,315.433L952.275,627.638C951.975,632.075 948.242,635.565 943.795,635.565C942.462,635.565 941.149,635.252 939.96,634.651L568.913,445.287L587.962,124.173C588.246,119.38 592.268,115.59 597.069,115.59C598.492,115.59 599.896,115.923 601.167,116.562Z" style="fill:rgb(208,205,225);fill-rule:nonzero;"/>
        </g>
        <g transform="matrix(1,0,0,1,-227.121,-115.58)">
            <path d="M605.342,122.924L959.206,300.833C965.21,303.852 968.838,310.206 968.385,316.911L947.826,621.446C947.534,625.774 943.892,629.179 939.554,629.179C938.255,629.179 936.973,628.873 935.814,628.287L573.88,443.575L592.462,130.348C592.739,125.673 596.662,121.976 601.345,121.976C602.733,121.976 604.102,122.3 605.342,122.924Z" style="fill:rgb(63,61,86);fill-rule:nonzero;"/>
        </g>
        <g transform="matrix(1,0,0,1,-227.121,-115.58)">
            <path d="M620.851,146.554L941.618,307.824C947.06,310.56 950.348,316.32 949.938,322.398L931.302,598.45C931.037,602.374 927.736,605.46 923.803,605.46C922.626,605.46 921.464,605.183 920.413,604.651L592.331,437.215L609.174,153.284C609.426,149.046 612.982,145.695 617.227,145.695C618.485,145.695 619.726,145.989 620.851,146.554Z" style="fill:rgb(53,47,68);fill-rule:nonzero;"/>
        </g>
        <g transform="matrix(1,0,0,1,-227.121,-115.58)">
            <path d="M289.867,598.911L653.105,781.842C659.955,785.287 668.05,785.276 674.891,781.814L943.605,645.406C946.755,642.256 946.315,637.586 945.308,634.08C944.819,632.383 944.153,630.742 943.321,629.184L906.703,609.924L598.832,456.315L580.437,446.55C570.562,441.32 558.719,441.272 548.802,446.422L289.753,580.985C286.418,582.71 284.316,586.164 284.316,589.919C284.316,593.719 286.47,597.208 289.867,598.911Z" style="fill:rgb(208,205,225);fill-rule:nonzero;"/>
        </g>
        <g transform="matrix(1,0,0,1,-227.121,-115.58)">
            <path d="M289.867,598.911L653.105,781.842C659.955,785.287 668.05,785.276 674.891,781.814L943.605,645.406C946.755,642.256 946.315,637.586 945.308,634.08L677.397,773.334C670.771,776.778 662.881,776.845 656.198,773.516L284.445,588.308C283.73,592.638 285.938,596.956 289.867,598.911Z" style="fill-opacity:0.1;fill-rule:nonzero;"/>
        </g>
        <g transform="matrix(1,0,0,1,-227.121,-115.58)">
            <path d="M634.638,653.721L517.003,594.276C512.201,591.849 506.504,591.914 501.759,594.449L433.518,630.907C431.931,631.754 430.937,633.413 430.937,635.212C430.937,637.052 431.977,638.742 433.62,639.571L553.561,700.054C557.602,702.092 562.404,701.981 566.347,699.76L634.86,661.161C636.18,660.417 637,659.015 637,657.499C637,655.894 636.081,654.424 634.638,653.721Z" style="fill-opacity:0.1;fill-rule:nonzero;"/>
        </g>
        <g transform="matrix(1,0,0,1,-227.121,-115.58)">
            <path d="M911.687,643.779L785.101,711.028C782.147,712.597 778.607,712.632 775.623,711.123L417.963,530.253C415.919,529.22 414.625,527.116 414.625,524.825C414.625,522.516 415.94,520.399 418.01,519.374L541.624,458.191C545.399,456.323 549.841,456.339 553.602,458.234L911.631,638.626C912.608,639.118 913.227,640.123 913.227,641.217C913.227,642.288 912.633,643.276 911.687,643.779Z" style="fill-opacity:0.1;fill-rule:nonzero;"/>
        </g>
    </g>
    <g id="Phone" transform="matrix(0.935562,-0.0667501,0.0667501,0.935562,-94.3992,226.563)">
        <g id="Rectangle_76" transform="matrix(1,0,0,1,636.095,169.558)">
            <path d="M10.994,2.442C10.994,1.094 9.9,0 8.552,0L2.442,0C1.094,0 0,1.094 0,2.442L0,88.162C0,89.51 1.094,90.604 2.442,90.604L8.552,90.604C9.9,90.604 10.994,89.51 10.994,88.162L10.994,2.442Z" style="fill:rgb(63,61,86);"/>
        </g>
        <g id="Rectangle_80" transform="matrix(1,0,0,1,274.248,0)">
            <path d="M367.778,41.57C367.778,18.627 349.151,0 326.208,0L41.57,0C18.627,0 0,18.627 0,41.57L0,705.885C0,728.828 18.627,747.455 41.57,747.455L326.208,747.455C349.151,747.455 367.778,728.828 367.778,705.885L367.778,41.57Z" style="fill:rgb(63,61,86);"/>
        </g>
        <g id="Path_176" transform="matrix(1,0,0,1,-167.063,-179.531)">
            <path d="M757.9,199L715.712,199L715.712,204.075C715.712,217.267 704.857,228.122 691.665,228.122C691.661,228.122 691.656,228.122 691.652,228.122L557.483,228.122C557.479,228.122 557.474,228.122 557.47,228.122C544.278,228.122 533.423,217.267 533.423,204.075L533.423,199L493.923,199C477.899,199 464.714,212.185 464.714,228.209L464.714,878.359C464.714,894.383 477.899,907.568 493.923,907.568L757.9,907.568C773.924,907.568 787.109,894.383 787.109,878.359L787.109,228.259C787.109,228.242 787.109,228.226 787.109,228.209C787.109,212.185 773.924,199 757.9,199Z" style="fill:rgb(53,47,68);fill-rule:nonzero;"/>
        </g>
        <g id="Rectangle_81" transform="matrix(1,0,0,1,422.662,22.322)">
            <path d="M51.357,4.126C51.357,1.849 49.508,0 47.231,0L4.126,0C1.849,0 0,1.849 0,4.126L0,6.297C0,8.574 1.849,10.423 4.126,10.423L47.231,10.423C49.508,10.423 51.357,8.574 51.357,6.297L51.357,4.126Z" style="fill:rgb(230,232,236);"/>
        </g>
    </g>
    <g transform="matrix(0.508059,-0.0362488,0.0362488,0.508059,382.205,426.073)">
        <g id="Page-1" serif:id="Page 1" transform="matrix(1,0,0,1,253.298,-267.328)">
            <g transform="matrix(1.06346,0.0758756,-0.0758756,1.06346,117.581,-233.779)">
                <g opacity="0.5">
                    <rect x="548.82" y="317.76" width="324.23" height="447.98" style="fill:url(#_Linear1);"/>
                </g>
            </g>
            <g transform="matrix(1.06346,0.0758756,-0.0758756,1.06346,117.581,-233.779)">
                <rect x="552.95" y="321.06" width="315.98" height="438.08" style="fill:white;"/>
            </g>
            <g transform="matrix(1.06346,0.0758756,-0.0758756,1.06346,117.581,-233.779)">
                <g opacity="0.5">
                    <rect x="518.88" y="301.67" width="324.23" height="447.98" style="fill:url(#_Linear2);"/>
                </g>
            </g>
            <g transform="matrix(1.06346,0.0758756,-0.0758756,1.06346,117.581,-233.779)">
                <rect x="523.01" y="304.97" width="315.98" height="438.08" style="fill:rgb(245,245,245);"/>
            </g>
            <g transform="matrix(1.06346,0.0758756,-0.0758756,1.06346,117.581,-233.779)">
                <g opacity="0.5">
                    <rect x="490.72" y="286.93" width="324.23" height="447.98" style="fill:url(#_Linear3);"/>
                </g>
            </g>
            <g transform="matrix(1.06346,0.0758756,-0.0758756,1.06346,117.581,-233.779)">
                <rect x="494.85" y="290.23" width="315.98" height="438.08" style="fill:white;"/>
            </g>
            <g transform="matrix(1.06346,0.0758756,-0.0758756,1.06346,117.581,-233.779)">
                <rect x="523.91" y="363.35" width="87.6" height="8.04"/>
            </g>
            <g transform="matrix(1.06346,0.0758756,-0.0758756,1.06346,117.581,-233.779)">
                <rect x="523.91" y="391.51" width="257.43" height="8.04" style="fill:rgb(224,224,224);"/>
            </g>
            <g transform="matrix(1.06346,0.0758756,-0.0758756,1.06346,117.581,-233.779)">
                <rect x="523.91" y="419.66" width="200.22" height="8.04" style="fill:rgb(224,224,224);"/>
            </g>
            <g transform="matrix(1.06346,0.0758756,-0.0758756,1.06346,117.581,-233.779)">
                <rect x="523.91" y="447.82" width="236.42" height="8.04" style="fill:rgb(224,224,224);"/>
            </g>
            <g transform="matrix(1.06346,0.0758756,-0.0758756,1.06346,117.581,-233.779)">
                <rect x="551.18" y="475.98" width="209.16" height="8.04" style="fill:rgb(224,224,224);"/>
            </g>
            <g transform="matrix(1.06346,0.0758756,-0.0758756,1.06346,117.581,-233.779)">
                <rect x="571.29" y="504.13" width="164.92" height="8.04" style="fill:rgb(58,210,159);fill-opacity:0.3;"/>
            </g>
            <g transform="matrix(1.06346,0.0758756,-0.0758756,1.06346,117.581,-233.779)">
                <rect x="551.18" y="532.29" width="205.14" height="8.04" style="fill:rgb(224,224,224);"/>
            </g>
            <g transform="matrix(1.06346,0.0758756,-0.0758756,1.06346,117.581,-233.779)">
                <rect x="523.91" y="560.44" width="257.43" height="8.04" style="fill:rgb(224,224,224);"/>
            </g>
            <g transform="matrix(1.06346,0.0758756,-0.0758756,1.06346,117.581,-233.779)">
                <rect x="523.91" y="588.6" width="257.43" height="8.04" style="fill:rgb(224,224,224);"/>
            </g>
            <g transform="matrix(1.06346,0.0758756,-0.0758756,1.06346,117.581,-233.779)">
                <rect x="523.91" y="616.76" width="257.43" height="8.04" style="fill:rgb(224,224,224);"/>
            </g>
            <g transform="matrix(1.06346,0.0758756,-0.0758756,1.06346,117.581,-233.779)">
                <rect x="523.91" y="644.91" width="257.43" height="8.04" style="fill:rgb(224,224,224);"/>
            </g>
        </g>
        <g transform="matrix(1.95831,0.13972,-0.13972,1.95831,-688.943,-887.782)">
            <path d="M769.369,410.216L795.991,434.542L771.666,461.164" style="fill:none;stroke:white;stroke-width:17px;"/>
            <path d="M498,375C498,375 509.898,309.039 597,321C652.235,328.585 654.775,363.218 675.348,390.33C718.65,447.394 751.871,437.404 795.991,434.542" style="fill:none;stroke:white;stroke-width:17px;stroke-miterlimit:2;stroke-dasharray:51,34,0,0;stroke-dashoffset:34;"/>
        </g>
        <g id="Page-2" serif:id="Page 2" transform="matrix(1,0,0,1,-116.924,176.676)">
            <g transform="matrix(1.06346,0.0758756,-0.0758756,1.06346,117.581,-233.779)">
                <g opacity="0.5">
                    <rect x="0" y="0" width="324.23" height="447.98" style="fill:url(#_Linear4);"/>
                </g>
            </g>
            <g transform="matrix(1.06346,0.0758756,-0.0758756,1.06346,117.581,-233.779)">
                <rect x="4.13" y="3.3" width="315.98" height="438.08" style="fill:white;"/>
            </g>
            <g transform="matrix(1.06346,0.0758756,-0.0758756,1.06346,117.581,-233.779)">
                <rect x="58.66" y="160.89" width="210.95" height="8.04" style="fill:rgb(224,224,224);"/>
            </g>
            <g transform="matrix(1.06346,0.0758756,-0.0758756,1.06346,117.581,-233.779)">
                <rect x="60.45" y="189.05" width="209.16" height="8.04" style="fill:rgb(224,224,224);"/>
            </g>
            <g transform="matrix(1.06346,0.0758756,-0.0758756,1.06346,117.581,-233.779)">
                <rect x="80.56" y="217.21" width="164.92" height="8.04" style="fill:rgb(224,224,224);"/>
            </g>
            <g transform="matrix(1.06346,0.0758756,-0.0758756,1.06346,117.581,-233.779)">
                <rect x="60.45" y="245.36" width="205.14" height="8.04" style="fill:rgb(224,224,224);"/>
            </g>
            <g transform="matrix(1.06346,0.0758756,-0.0758756,1.06346,117.581,-233.779)">
                <rect x="58.66" y="273.52" width="209.16" height="8.04" style="fill:rgb(224,224,224);"/>
            </g>
            <g transform="matrix(1.06346,0.0758756,-0.0758756,1.06346,117.581,-233.779)">
                <rect x="58.66" y="301.67" width="209.16" height="8.04" style="fill:rgb(224,224,224);"/>
            </g>
            <g transform="matrix(1.06346,0.0758756,-0.0758756,1.06346,117.581,-233.779)">
                <rect x="58.66" y="329.83" width="209.16" height="8.04" style="fill:rgb(224,224,224);"/>
            </g>
            <g transform="matrix(1.06346,0.0758756,-0.0758756,1.06346,117.581,-233.779)">
                <rect x="58.66" y="357.99" width="209.16" height="8.04" style="fill:rgb(224,224,224);"/>
            </g>
            <g transform="matrix(1.06346,0.0758756,-0.0758756,1.06346,117.581,-233.779)">
                <rect x="61.56" y="65.7" width="56.31" height="48.27"/>
            </g>
            <g transform="matrix(1.06346,0.0758756,-0.0758756,1.06346,117.581,-233.779)">
                <rect x="158.09" y="73.74" width="104.58" height="8.04" style="fill:rgb(224,224,224);"/>
            </g>
            <g transform="matrix(1.06346,0.0758756,-0.0758756,1.06346,117.581,-233.779)">
                <rect x="158.09" y="101.9" width="104.58" height="8.04" style="fill:rgb(58,210,159);fill-opacity:0.3;"/>
            </g>
        </g>
        <g transform="matrix(1.06346,0.0758756,-0.0758756,1.06346,-51.1701,-317.573)">
            <path d="M677.42,233.27C675.734,232.513 674.87,230.594 675.42,228.83C675.463,228.697 675.49,228.559 675.5,228.42C675.503,228.381 675.504,228.341 675.504,228.302C675.504,227.292 674.673,226.462 673.664,226.462C673.084,226.462 672.537,226.736 672.19,227.2C672.11,227.312 672.042,227.433 671.99,227.56C671.233,229.246 669.314,230.11 667.55,229.56C667.417,229.517 667.279,229.49 667.14,229.48C667.101,229.477 667.061,229.476 667.022,229.476C666.012,229.476 665.182,230.307 665.182,231.316C665.182,231.896 665.456,232.443 665.92,232.79C666.032,232.87 666.153,232.938 666.28,232.99C667.966,233.747 668.83,235.666 668.28,237.43C668.237,237.563 668.21,237.701 668.2,237.84C668.197,237.879 668.196,237.919 668.196,237.958C668.196,238.968 669.027,239.798 670.036,239.798C670.616,239.798 671.163,239.524 671.51,239.06C671.59,238.948 671.658,238.827 671.71,238.7C672.467,237.014 674.386,236.15 676.15,236.7C676.283,236.743 676.421,236.77 676.56,236.78C676.599,236.783 676.639,236.784 676.678,236.784C677.688,236.784 678.518,235.953 678.518,234.944C678.518,234.364 678.244,233.817 677.78,233.47C677.668,233.39 677.547,233.322 677.42,233.27Z" style="fill-opacity:0.3;fill-rule:nonzero;"/>
        </g>
        <g transform="matrix(1.06346,0.0758756,-0.0758756,1.06346,-51.1701,-317.573)">
            <path d="M548.61,324.4C545.002,322.835 543.132,318.755 544.3,315C544.39,314.721 544.447,314.432 544.47,314.14C544.477,314.048 544.48,313.955 544.48,313.863C544.48,311.735 542.728,309.983 540.6,309.983C539.364,309.983 538.2,310.573 537.47,311.57C537.297,311.806 537.153,312.061 537.04,312.33C535.476,315.919 531.424,317.785 527.68,316.64C527.401,316.55 527.112,316.493 526.82,316.47C526.728,316.463 526.635,316.46 526.543,316.46C524.415,316.46 522.663,318.212 522.663,320.34C522.663,321.576 523.253,322.74 524.25,323.47C524.486,323.643 524.741,323.787 525.01,323.9C528.599,325.464 530.465,329.516 529.32,333.26C529.23,333.539 529.173,333.828 529.15,334.12C529.143,334.212 529.14,334.305 529.14,334.397C529.14,336.525 530.892,338.277 533.02,338.277C534.256,338.277 535.42,337.687 536.15,336.69C536.323,336.454 536.467,336.199 536.58,335.93C538.144,332.341 542.196,330.475 545.94,331.62C546.219,331.71 546.508,331.767 546.8,331.79C546.892,331.797 546.985,331.8 547.077,331.8C549.205,331.8 550.957,330.048 550.957,327.92C550.957,326.684 550.367,325.52 549.37,324.79C549.132,324.631 548.877,324.5 548.61,324.4Z" style="fill-opacity:0.3;fill-rule:nonzero;"/>
        </g>
        <g transform="matrix(1.06346,0.0758756,-0.0758756,1.06346,-229.387,-468.067)">
            <path d="M677.42,233.27C675.734,232.513 674.87,230.594 675.42,228.83C675.463,228.697 675.49,228.559 675.5,228.42C675.503,228.381 675.504,228.341 675.504,228.302C675.504,227.292 674.673,226.462 673.664,226.462C673.084,226.462 672.537,226.736 672.19,227.2C672.11,227.312 672.042,227.433 671.99,227.56C671.233,229.246 669.314,230.11 667.55,229.56C667.417,229.517 667.279,229.49 667.14,229.48C667.101,229.477 667.061,229.476 667.022,229.476C666.012,229.476 665.182,230.307 665.182,231.316C665.182,231.896 665.456,232.443 665.92,232.79C666.032,232.87 666.153,232.938 666.28,232.99C667.966,233.747 668.83,235.666 668.28,237.43C668.237,237.563 668.21,237.701 668.2,237.84C668.197,237.879 668.196,237.919 668.196,237.958C668.196,238.968 669.027,239.798 670.036,239.798C670.616,239.798 671.163,239.524 671.51,239.06C671.59,238.948 671.658,238.827 671.71,238.7C672.467,237.014 674.386,236.15 676.15,236.7C676.283,236.743 676.421,236.77 676.56,236.78C676.599,236.783 676.639,236.784 676.678,236.784C677.688,236.784 678.518,235.953 678.518,234.944C678.518,234.364 678.244,233.817 677.78,233.47C677.668,233.39 677.547,233.322 677.42,233.27Z" style="fill-opacity:0.3;fill-rule:nonzero;"/>
        </g>
        <g transform="matrix(1.06346,0.0758756,-0.0758756,1.06346,-229.387,-468.067)">
            <path d="M548.61,324.4C545.002,322.835 543.132,318.755 544.3,315C544.39,314.721 544.447,314.432 544.47,314.14C544.477,314.048 544.48,313.955 544.48,313.863C544.48,311.735 542.728,309.983 540.6,309.983C539.364,309.983 538.2,310.573 537.47,311.57C537.297,311.806 537.153,312.061 537.04,312.33C535.476,315.919 531.424,317.785 527.68,316.64C527.401,316.55 527.112,316.493 526.82,316.47C526.728,316.463 526.635,316.46 526.543,316.46C524.415,316.46 522.663,318.212 522.663,320.34C522.663,321.576 523.253,322.74 524.25,323.47C524.486,323.643 524.741,323.787 525.01,323.9C528.599,325.464 530.465,329.516 529.32,333.26C529.23,333.539 529.173,333.828 529.15,334.12C529.143,334.212 529.14,334.305 529.14,334.397C529.14,336.525 530.892,338.277 533.02,338.277C534.256,338.277 535.42,337.687 536.15,336.69C536.323,336.454 536.467,336.199 536.58,335.93C538.144,332.341 542.196,330.475 545.94,331.62C546.219,331.71 546.508,331.767 546.8,331.79C546.892,331.797 546.985,331.8 547.077,331.8C549.205,331.8 550.957,330.048 550.957,327.92C550.957,326.684 550.367,325.52 549.37,324.79C549.132,324.631 548.877,324.5 548.61,324.4Z" style="fill-opacity:0.3;fill-rule:nonzero;"/>
        </g>
        <g transform="matrix(1.06346,0.0758756,-0.0758756,1.06346,-51.1701,-317.573)">
            <path d="M627.62,586.6C623.784,587.379 619.931,585.132 618.72,581.41C618.635,581.131 618.518,580.862 618.37,580.61C617.666,579.457 616.409,578.751 615.058,578.751C612.979,578.751 611.25,580.422 611.18,582.5C611.172,582.792 611.199,583.084 611.26,583.37C612.039,587.206 609.792,591.059 606.07,592.27C605.791,592.355 605.522,592.472 605.27,592.62C604.117,593.324 603.411,594.581 603.411,595.932C603.411,598.011 605.082,599.74 607.16,599.81C607.452,599.818 607.744,599.791 608.03,599.73C611.866,598.951 615.719,601.198 616.93,604.92C617.015,605.199 617.132,605.468 617.28,605.72C617.984,606.873 619.241,607.579 620.592,607.579C622.671,607.579 624.4,605.908 624.47,603.83C624.478,603.538 624.451,603.246 624.39,602.96C623.611,599.124 625.858,595.271 629.58,594.06C629.859,593.975 630.128,593.858 630.38,593.71C631.533,593.006 632.239,591.749 632.239,590.398C632.239,588.319 630.568,586.59 628.49,586.52C628.198,586.512 627.906,586.539 627.62,586.6Z" style="fill-opacity:0.3;fill-rule:nonzero;"/>
        </g>
        <g transform="matrix(1.06346,0.0758756,-0.0758756,1.06346,91.9658,186.676)">
            <path d="M677.42,233.27C675.734,232.513 674.87,230.594 675.42,228.83C675.463,228.697 675.49,228.559 675.5,228.42C675.503,228.381 675.504,228.341 675.504,228.302C675.504,227.292 674.673,226.462 673.664,226.462C673.084,226.462 672.537,226.736 672.19,227.2C672.11,227.312 672.042,227.433 671.99,227.56C671.233,229.246 669.314,230.11 667.55,229.56C667.417,229.517 667.279,229.49 667.14,229.48C667.101,229.477 667.061,229.476 667.022,229.476C666.012,229.476 665.182,230.307 665.182,231.316C665.182,231.896 665.456,232.443 665.92,232.79C666.032,232.87 666.153,232.938 666.28,232.99C667.966,233.747 668.83,235.666 668.28,237.43C668.237,237.563 668.21,237.701 668.2,237.84C668.197,237.879 668.196,237.919 668.196,237.958C668.196,238.968 669.027,239.798 670.036,239.798C670.616,239.798 671.163,239.524 671.51,239.06C671.59,238.948 671.658,238.827 671.71,238.7C672.467,237.014 674.386,236.15 676.15,236.7C676.283,236.743 676.421,236.77 676.56,236.78C676.599,236.783 676.639,236.784 676.678,236.784C677.688,236.784 678.518,235.953 678.518,234.944C678.518,234.364 678.244,233.817 677.78,233.47C677.668,233.39 677.547,233.322 677.42,233.27Z" style="fill-opacity:0.3;fill-rule:nonzero;"/>
        </g>
        <g transform="matrix(1.06346,0.0758756,-0.0758756,1.06346,91.9658,186.676)">
            <path d="M548.61,324.4C545.002,322.835 543.132,318.755 544.3,315C544.39,314.721 544.447,314.432 544.47,314.14C544.477,314.048 544.48,313.955 544.48,313.863C544.48,311.735 542.728,309.983 540.6,309.983C539.364,309.983 538.2,310.573 537.47,311.57C537.297,311.806 537.153,312.061 537.04,312.33C535.476,315.919 531.424,317.785 527.68,316.64C527.401,316.55 527.112,316.493 526.82,316.47C526.728,316.463 526.635,316.46 526.543,316.46C524.415,316.46 522.663,318.212 522.663,320.34C522.663,321.576 523.253,322.74 524.25,323.47C524.486,323.643 524.741,323.787 525.01,323.9C528.599,325.464 530.465,329.516 529.32,333.26C529.23,333.539 529.173,333.828 529.15,334.12C529.143,334.212 529.14,334.305 529.14,334.397C529.14,336.525 530.892,338.277 533.02,338.277C534.256,338.277 535.42,337.687 536.15,336.69C536.323,336.454 536.467,336.199 536.58,335.93C538.144,332.341 542.196,330.475 545.94,331.62C546.219,331.71 546.508,331.767 546.8,331.79C546.892,331.797 546.985,331.8 547.077,331.8C549.205,331.8 550.957,330.048 550.957,327.92C550.957,326.684 550.367,325.52 549.37,324.79C549.132,324.631 548.877,324.5 548.61,324.4Z" style="fill-opacity:0.3;fill-rule:nonzero;"/>
        </g>
        <g transform="matrix(1.06346,0.0758756,-0.0758756,1.06346,-51.1701,-317.573)">
            <path d="M469.42,638.27C467.734,637.513 466.87,635.594 467.42,633.83C467.463,633.697 467.49,633.559 467.5,633.42C467.503,633.381 467.504,633.341 467.504,633.302C467.504,632.292 466.673,631.462 465.664,631.462C465.084,631.462 464.537,631.736 464.19,632.2C464.11,632.312 464.042,632.433 463.99,632.56C463.233,634.246 461.314,635.11 459.55,634.56C459.417,634.517 459.279,634.49 459.14,634.48C459.101,634.477 459.061,634.476 459.022,634.476C458.012,634.476 457.182,635.307 457.182,636.316C457.182,636.896 457.456,637.443 457.92,637.79C458.032,637.87 458.153,637.938 458.28,637.99C459.966,638.747 460.83,640.666 460.28,642.43C460.237,642.563 460.21,642.701 460.2,642.84C460.197,642.879 460.196,642.919 460.196,642.958C460.196,643.968 461.027,644.798 462.036,644.798C462.616,644.798 463.163,644.524 463.51,644.06C463.59,643.948 463.658,643.827 463.71,643.7C464.467,642.014 466.386,641.15 468.15,641.7C468.283,641.743 468.421,641.77 468.56,641.78C468.599,641.783 468.639,641.784 468.678,641.784C469.688,641.784 470.518,640.953 470.518,639.944C470.518,639.364 470.244,638.817 469.78,638.47C469.668,638.39 469.547,638.322 469.42,638.27Z" style="fill-opacity:0.3;fill-rule:nonzero;"/>
        </g>
        <g transform="matrix(1.06346,0.0758756,-0.0758756,1.06346,0.843605,-577.611)">
            <path d="M627.62,586.6C623.784,587.379 619.931,585.132 618.72,581.41C618.635,581.131 618.518,580.862 618.37,580.61C617.666,579.457 616.409,578.751 615.058,578.751C612.979,578.751 611.25,580.422 611.18,582.5C611.172,582.792 611.199,583.084 611.26,583.37C612.039,587.206 609.792,591.059 606.07,592.27C605.791,592.355 605.522,592.472 605.27,592.62C604.117,593.324 603.411,594.581 603.411,595.932C603.411,598.011 605.082,599.74 607.16,599.81C607.452,599.818 607.744,599.791 608.03,599.73C611.866,598.951 615.719,601.198 616.93,604.92C617.015,605.199 617.132,605.468 617.28,605.72C617.984,606.873 619.241,607.579 620.592,607.579C622.671,607.579 624.4,605.908 624.47,603.83C624.478,603.538 624.451,603.246 624.39,602.96C623.611,599.124 625.858,595.271 629.58,594.06C629.859,593.975 630.128,593.858 630.38,593.71C631.533,593.006 632.239,591.749 632.239,590.398C632.239,588.319 630.568,586.59 628.49,586.52C628.198,586.512 627.906,586.539 627.62,586.6Z" style="fill-opacity:0.3;fill-rule:nonzero;"/>
        </g>
        <g transform="matrix(1.06346,0.0758756,-0.0758756,1.06346,143.98,-73.3614)">
            <path d="M677.42,233.27C675.734,232.513 674.87,230.594 675.42,228.83C675.463,228.697 675.49,228.559 675.5,228.42C675.503,228.381 675.504,228.341 675.504,228.302C675.504,227.292 674.673,226.462 673.664,226.462C673.084,226.462 672.537,226.736 672.19,227.2C672.11,227.312 672.042,227.433 671.99,227.56C671.233,229.246 669.314,230.11 667.55,229.56C667.417,229.517 667.279,229.49 667.14,229.48C667.101,229.477 667.061,229.476 667.022,229.476C666.012,229.476 665.182,230.307 665.182,231.316C665.182,231.896 665.456,232.443 665.92,232.79C666.032,232.87 666.153,232.938 666.28,232.99C667.966,233.747 668.83,235.666 668.28,237.43C668.237,237.563 668.21,237.701 668.2,237.84C668.197,237.879 668.196,237.919 668.196,237.958C668.196,238.968 669.027,239.798 670.036,239.798C670.616,239.798 671.163,239.524 671.51,239.06C671.59,238.948 671.658,238.827 671.71,238.7C672.467,237.014 674.386,236.15 676.15,236.7C676.283,236.743 676.421,236.77 676.56,236.78C676.599,236.783 676.639,236.784 676.678,236.784C677.688,236.784 678.518,235.953 678.518,234.944C678.518,234.364 678.244,233.817 677.78,233.47C677.668,233.39 677.547,233.322 677.42,233.27Z" style="fill-opacity:0.3;fill-rule:nonzero;"/>
        </g>
        <g transform="matrix(1.06346,0.0758756,-0.0758756,1.06346,143.98,-73.3614)">
            <path d="M548.61,324.4C545.002,322.835 543.132,318.755 544.3,315C544.39,314.721 544.447,314.432 544.47,314.14C544.477,314.048 544.48,313.955 544.48,313.863C544.48,311.735 542.728,309.983 540.6,309.983C539.364,309.983 538.2,310.573 537.47,311.57C537.297,311.806 537.153,312.061 537.04,312.33C535.476,315.919 531.424,317.785 527.68,316.64C527.401,316.55 527.112,316.493 526.82,316.47C526.728,316.463 526.635,316.46 526.543,316.46C524.415,316.46 522.663,318.212 522.663,320.34C522.663,321.576 523.253,322.74 524.25,323.47C524.486,323.643 524.741,323.787 525.01,323.9C528.599,325.464 530.465,329.516 529.32,333.26C529.23,333.539 529.173,333.828 529.15,334.12C529.143,334.212 529.14,334.305 529.14,334.397C529.14,336.525 530.892,338.277 533.02,338.277C534.256,338.277 535.42,337.687 536.15,336.69C536.323,336.454 536.467,336.199 536.58,335.93C538.144,332.341 542.196,330.475 545.94,331.62C546.219,331.71 546.508,331.767 546.8,331.79C546.892,331.797 546.985,331.8 547.077,331.8C549.205,331.8 550.957,330.048 550.957,327.92C550.957,326.684 550.367,325.52 549.37,324.79C549.132,324.631 548.877,324.5 548.61,324.4Z" style="fill-opacity:0.3;fill-rule:nonzero;"/>
        </g>
        <g transform="matrix(1.06346,0.0758756,-0.0758756,1.06346,0.843605,-577.611)">
            <path d="M469.42,638.27C467.734,637.513 466.87,635.594 467.42,633.83C467.463,633.697 467.49,633.559 467.5,633.42C467.503,633.381 467.504,633.341 467.504,633.302C467.504,632.292 466.673,631.462 465.664,631.462C465.084,631.462 464.537,631.736 464.19,632.2C464.11,632.312 464.042,632.433 463.99,632.56C463.233,634.246 461.314,635.11 459.55,634.56C459.417,634.517 459.279,634.49 459.14,634.48C459.101,634.477 459.061,634.476 459.022,634.476C458.012,634.476 457.182,635.307 457.182,636.316C457.182,636.896 457.456,637.443 457.92,637.79C458.032,637.87 458.153,637.938 458.28,637.99C459.966,638.747 460.83,640.666 460.28,642.43C460.237,642.563 460.21,642.701 460.2,642.84C460.197,642.879 460.196,642.919 460.196,642.958C460.196,643.968 461.027,644.798 462.036,644.798C462.616,644.798 463.163,644.524 463.51,644.06C463.59,643.948 463.658,643.827 463.71,643.7C464.467,642.014 466.386,641.15 468.15,641.7C468.283,641.743 468.421,641.77 468.56,641.78C468.599,641.783 468.639,641.784 468.678,641.784C469.688,641.784 470.518,640.953 470.518,639.944C470.518,639.364 470.244,638.817 469.78,638.47C469.668,638.39 469.547,638.322 469.42,638.27Z" style="fill-opacity:0.3;fill-rule:nonzero;"/>
        </g>
    </g>
    <defs>
        <linearGradient id="_Linear1" x1="0" y1="0" x2="1" y2="0" gradientUnits="userSpaceOnUse" gradientTransform="matrix(2.74315e-14,-447.99,447.99,2.74315e-14,710.94,765.75)"><stop offset="0" style="stop-color:rgb(128,128,128);stop-opacity:0.25"/><stop offset="0.54" style="stop-color:rgb(128,128,128);stop-opacity:0.12"/><stop offset="1" style="stop-color:rgb(128,128,128);stop-opacity:0.1"/></linearGradient>
        <linearGradient id="_Linear2" x1="0" y1="0" x2="1" y2="0" gradientUnits="userSpaceOnUse" gradientTransform="matrix(2.74315e-14,-447.99,447.99,2.74315e-14,681,749.66)"><stop offset="0" style="stop-color:rgb(128,128,128);stop-opacity:0.25"/><stop offset="0.54" style="stop-color:rgb(128,128,128);stop-opacity:0.12"/><stop offset="1" style="stop-color:rgb(128,128,128);stop-opacity:0.1"/></linearGradient>
        <linearGradient id="_Linear3" x1="0" y1="0" x2="1" y2="0" gradientUnits="userSpaceOnUse" gradientTransform="matrix(2.74309e-14,-447.98,447.98,2.74309e-14,652.84,734.91)"><stop offset="0" style="stop-color:rgb(128,128,128);stop-opacity:0.25"/><stop offset="0.54" style="stop-color:rgb(128,128,128);stop-opacity:0.12"/><stop offset="1" style="stop-color:rgb(128,128,128);stop-opacity:0.1"/></linearGradient>
        <linearGradient id="_Linear4" x1="0" y1="0" x2="1" y2="0" gradientUnits="userSpaceOnUse" gradientTransform="matrix(2.74309e-14,-447.98,447.98,2.74309e-14,162.11,447.98)"><stop offset="0" style="stop-color:rgb(128,128,128);stop-opacity:0.25"/><stop offset="0.54" style="stop-color:rgb(128,128,128);stop-opacity:0.12"/><stop offset="1" style="stop-color:rgb(128,128,128);stop-opacity:0.1"/></linearGradient>
    </defs>
</svg>
